<?xml version="1.0" encoding="utf-8"?>
<!-- Generator: Adobe Illustrator 16.0.3, SVG Export Plug-In . SVG Version: 6.00 Build 0)  -->
<!DOCTYPE svg PUBLIC "-//W3C//DTD SVG 1.1//EN" "http://www.w3.org/Graphics/SVG/1.1/DTD/svg11.dtd">
<svg version="1.1" xmlns="http://www.w3.org/2000/svg" xmlns:xlink="http://www.w3.org/1999/xlink" x="0px" y="0px" width="1024px"
	 height="1024px" viewBox="0 0 1024 1024" enable-background="new 0 0 1024 1024" xml:space="preserve">
<g id="レイヤー_3">
	<rect x="-0.5" y="0.5" fill="#2B04B5" stroke="#000000" stroke-miterlimit="10" width="1024" height="1024"/>
</g>
<g id="レイヤー_1">
	<path fill="#FFFFFF" d="M805.556,739c0,121.667-62.223,215.556-306.667,190c-159.905-16.718-291.111-89.294-291.111-199.444
		S322.223,499,500,471.222C553.334,502,638.249,550.812,681.582,528.59C766.583,580.77,805.556,669.635,805.556,739z"/>
	<path fill="#FFFFFF" d="M558.889,406.778c0,0,92.222,25.555,118.889,42.222S713,497,683,503.667s-32.667,6.222-106-16
		s-68.654-54.779-65-66.444C518.334,401,541,406.778,558.889,406.778z"/>
	<path fill="#FFFFFF" d="M541,153c20-30,82.666-39.333,112-30s35.334,80,61.334,101.333S770.333,213,789,241.667
		c0.73,1.122,16.441,25.415,16.556,26.667c3.333,36.667-37.17,33.695-35.889,75.333c1.333,43.333,53.11,12.667,35.889,56.667
		S767.666,417,757,423.667s-10,32-29.333,24.667s-82.636-41.105-103.081-55.161c-23.999-16.499-58.616-2.098-71.997-11.576
		c-16-11.333-25.325-14.998-26.658-44.998s24.119-44.942,21.452-74.276s-23.21-17.064-21.333-53.237
		C527.335,184.312,521.313,182.529,541,153z M588.334,216.333c4,10,12.752,20.937,34.752,24.271s26.917,27.164,31.498,52.498
		S649,327.667,657,341s54.667,56,77.334,44.667s-17.334-41.333-12-58S749,323.667,745,301s-29.333-18-51.333-32.667
		s-42.667-86.667-58-94.667s-34.635-4.209-47.333,12C581.997,193.755,584.334,206.333,588.334,216.333z"/>
	<path fill="#FFFFFF" d="M207.777,192.106c43.327-35.498,111.902-15.969,146.821,0c33.69,15.407,179.13,177.91,132.633,213.908
		c-46.498,35.998-33.637-9.657-83.135-15.657c-89.615-10.862-83.63,42.306-110.995-0.261c-13.5-20.999-35.998-49.498-13.5-61.497
		s68.997,37.499,107.995,13.5c23.999-23.999-13.499-104.995-82.496-104.995s-71.997,41.998-73.497,61.497
		s61.497,104.625,58.497,167.622c-3,62.997-50.998,156.362-89.996,147.363s-79.496-47.997-77.996-88.495
		c1.5-40.499,49.498-143.493,70.497-116.995c31.178,39.344-9.779,57.188-14.279,88.777s16.122,46.217,29.45,46.217
		s37.327-71.496,16.328-113.494s-74.996-94.996-74.996-120.495S157.766,233.081,207.777,192.106z"/>
</g>
<g id="レイヤー_4" display="none">
	<g display="inline">
		<rect x="671.5" y="855.5" stroke="#000000" stroke-miterlimit="10" width="5" height="47"/>
		
			<rect x="667.066" y="885.051" transform="matrix(0.8944 0.4472 -0.4472 0.8944 470.438 -205.071)" stroke="#000000" stroke-miterlimit="10" width="5.001" height="17.635"/>
		
			<rect x="676.066" y="885.051" transform="matrix(0.8944 -0.4472 0.4472 0.8944 -328.1118 397.8323)" stroke="#000000" stroke-miterlimit="10" width="5.001" height="17.635"/>
	</g>
	
		<ellipse display="inline" fill="#FFFF00" stroke="#000000" stroke-miterlimit="10" cx="652.667" cy="798" rx="99.667" ry="67.667"/>
	<polygon display="inline" fill="#FFFF00" stroke="#000000" stroke-miterlimit="10" points="564.5,798.5 506.667,797.5 
		564.5,767.584 	"/>
	<polygon display="inline" fill="#FFFF00" stroke="#000000" stroke-miterlimit="10" points="564.5,797.5 506.667,797.5 564.5,828.5 
			"/>
	<circle display="inline" stroke="#000000" stroke-miterlimit="10" cx="595.557" cy="774.891" r="10.557"/>
	<g display="inline">
		<rect x="638.5" y="855.5" stroke="#000000" stroke-miterlimit="10" width="5" height="47"/>
		
			<rect x="634.066" y="885.051" transform="matrix(0.8944 0.4472 -0.4472 0.8944 466.9541 -190.313)" stroke="#000000" stroke-miterlimit="10" width="5.001" height="17.635"/>
		
			<rect x="643.066" y="885.051" transform="matrix(0.8944 -0.4472 0.4472 0.8944 -331.5958 383.0742)" stroke="#000000" stroke-miterlimit="10" width="5.001" height="17.635"/>
	</g>
</g>
<g id="レイヤー_5">
	<path fill="#2B04B5" d="M766.547,818.825c-23.371,58.677-52.456,91.509-117.902,91.509s-115.376-48.39-122.412-105.479
		c-15.28-123.989,83.678-150.847,126.008-107.051c74.156,70.428,119.1,28.116,139.475,5.763
		C795.311,737.01,775.268,796.93,766.547,818.825z"/>
	<polygon fill="#2B04B5" points="536,808.451 432.331,768.231 536,728.012 	"/>
</g>
</svg>
